<mxfile host="65bd71144e">
    <diagram id="K61mli4W6nfY99B6M5Sg" name="Page-1">
        <mxGraphModel dx="1724" dy="779" grid="1" gridSize="10" guides="1" tooltips="1" connect="1" arrows="1" fold="1" page="1" pageScale="1" pageWidth="850" pageHeight="1100" background="light-dark(#FFFFFF,#0A0A0A)" math="0" shadow="0">
            <root>
                <mxCell id="0"/>
                <mxCell id="1" parent="0"/>
                <mxCell id="2" value="" style="edgeStyle=none;html=1;" edge="1" parent="1" source="5" target="6">
                    <mxGeometry relative="1" as="geometry"/>
                </mxCell>
                <mxCell id="3" value="" style="edgeStyle=none;html=1;entryX=0.5;entryY=0;entryDx=0;entryDy=0;" edge="1" parent="1" target="7">
                    <mxGeometry relative="1" as="geometry">
                        <mxPoint x="425" y="160" as="sourcePoint"/>
                        <Array as="points">
                            <mxPoint x="40" y="160"/>
                        </Array>
                    </mxGeometry>
                </mxCell>
                <mxCell id="4" value="" style="edgeStyle=none;html=1;entryX=0.5;entryY=0;entryDx=0;entryDy=0;" edge="1" parent="1" target="9">
                    <mxGeometry relative="1" as="geometry">
                        <mxPoint x="410" y="160" as="sourcePoint"/>
                        <Array as="points">
                            <mxPoint x="800" y="160"/>
                        </Array>
                    </mxGeometry>
                </mxCell>
                <mxCell id="5" value="EJERCICIO 3" style="whiteSpace=wrap;html=1;aspect=fixed;" vertex="1" parent="1">
                    <mxGeometry x="378" y="10" width="100" height="100" as="geometry"/>
                </mxCell>
                <mxCell id="6" value="CALCULAR FECHA COMO UN SOLO NUMERO" style="whiteSpace=wrap;html=1;aspect=fixed;" vertex="1" parent="1">
                    <mxGeometry x="380" y="200" width="98" height="98" as="geometry"/>
                </mxCell>
                <mxCell id="7" value="PEDIR NUMEROS DE LA FECHA (DIA, MES, AÑO)" style="whiteSpace=wrap;html=1;aspect=fixed;" vertex="1" parent="1">
                    <mxGeometry x="-10" y="199" width="98" height="98" as="geometry"/>
                </mxCell>
                <mxCell id="8" value="" style="edgeStyle=none;html=1;entryX=0.5;entryY=0;entryDx=0;entryDy=0;" edge="1" parent="1" source="9" target="22">
                    <mxGeometry relative="1" as="geometry">
                        <mxPoint x="860" y="400" as="targetPoint"/>
                    </mxGeometry>
                </mxCell>
                <mxCell id="9" value="MOSTRAR RESULTADOS" style="whiteSpace=wrap;html=1;aspect=fixed;" vertex="1" parent="1">
                    <mxGeometry x="750" y="198" width="100" height="100" as="geometry"/>
                </mxCell>
                <mxCell id="10" value="DEFINIR VARIABLES" style="whiteSpace=wrap;html=1;aspect=fixed;" vertex="1" parent="1">
                    <mxGeometry x="-98" y="400" width="98" height="98" as="geometry"/>
                </mxCell>
                <mxCell id="11" value="PIDO Y LEO NUMEROS" style="whiteSpace=wrap;html=1;aspect=fixed;" vertex="1" parent="1">
                    <mxGeometry x="70" y="400" width="98" height="98" as="geometry"/>
                </mxCell>
                <mxCell id="12" value="" style="endArrow=none;html=1;entryX=0.5;entryY=1;entryDx=0;entryDy=0;" edge="1" parent="1" target="7">
                    <mxGeometry width="50" height="50" relative="1" as="geometry">
                        <mxPoint x="39" y="360" as="sourcePoint"/>
                        <mxPoint x="329" y="298" as="targetPoint"/>
                    </mxGeometry>
                </mxCell>
                <mxCell id="13" value="" style="endArrow=classic;html=1;entryX=0.5;entryY=0;entryDx=0;entryDy=0;" edge="1" parent="1">
                    <mxGeometry width="50" height="50" relative="1" as="geometry">
                        <mxPoint x="29" y="358" as="sourcePoint"/>
                        <mxPoint x="118" y="398" as="targetPoint"/>
                        <Array as="points">
                            <mxPoint x="118" y="358"/>
                        </Array>
                    </mxGeometry>
                </mxCell>
                <mxCell id="14" value="" style="endArrow=classic;html=1;entryX=0.5;entryY=0;entryDx=0;entryDy=0;" edge="1" parent="1">
                    <mxGeometry width="50" height="50" relative="1" as="geometry">
                        <mxPoint x="29" y="358" as="sourcePoint"/>
                        <mxPoint x="-52" y="398" as="targetPoint"/>
                        <Array as="points">
                            <mxPoint x="-51" y="358"/>
                        </Array>
                    </mxGeometry>
                </mxCell>
                <mxCell id="15" value="" style="endArrow=none;html=1;entryX=0.5;entryY=1;entryDx=0;entryDy=0;" edge="1" parent="1">
                    <mxGeometry width="50" height="50" relative="1" as="geometry">
                        <mxPoint x="428.5" y="360" as="sourcePoint"/>
                        <mxPoint x="428.5" y="298" as="targetPoint"/>
                    </mxGeometry>
                </mxCell>
                <mxCell id="16" value="DEFINIR VARIABLE FECHA COMO ENTERO" style="whiteSpace=wrap;html=1;aspect=fixed;" vertex="1" parent="1">
                    <mxGeometry x="250" y="400" width="98" height="98" as="geometry"/>
                </mxCell>
                <mxCell id="17" value="" style="endArrow=classic;html=1;entryX=0.5;entryY=0;entryDx=0;entryDy=0;" edge="1" parent="1">
                    <mxGeometry width="50" height="50" relative="1" as="geometry">
                        <mxPoint x="420" y="360" as="sourcePoint"/>
                        <mxPoint x="300" y="400" as="targetPoint"/>
                        <Array as="points">
                            <mxPoint x="301" y="360"/>
                        </Array>
                    </mxGeometry>
                </mxCell>
                <mxCell id="19" value="" style="endArrow=classic;html=1;entryX=0.5;entryY=0;entryDx=0;entryDy=0;" edge="1" parent="1" target="21">
                    <mxGeometry width="50" height="50" relative="1" as="geometry">
                        <mxPoint x="420" y="360" as="sourcePoint"/>
                        <mxPoint x="549" y="400" as="targetPoint"/>
                        <Array as="points">
                            <mxPoint x="560" y="360"/>
                        </Array>
                    </mxGeometry>
                </mxCell>
                <mxCell id="21" value="CALCULAR FECHA CON DIA, MES Y AÑO" style="whiteSpace=wrap;html=1;aspect=fixed;" vertex="1" parent="1">
                    <mxGeometry x="510" y="400" width="98" height="98" as="geometry"/>
                </mxCell>
                <mxCell id="22" value="MOSTRAR FECHA COMO ENTERO DE 8 DIGITOS (AAAAMMDD)" style="whiteSpace=wrap;html=1;aspect=fixed;" vertex="1" parent="1">
                    <mxGeometry x="750" y="400" width="98" height="98" as="geometry"/>
                </mxCell>
            </root>
        </mxGraphModel>
    </diagram>
</mxfile>